# File produced by Open Asset Import Library (http://www.assimp.sf.net)
# (assimp v3.1.202510665)

mtllib Stone_C_PT.mtl

# vertex positions
v 76.726135 41.286724 -69.637856
v 67.535233 49.462330 -71.081421
v 66.340889 49.139374 -67.527611
v 75.666466 41.301079 -66.731407
v 56.069721 54.322803 -72.732445
v 55.034405 53.931477 -68.445816
v 54.692768 51.832062 -65.721886
v 65.035004 48.067463 -65.353310
v 73.111214 40.704037 -65.001205
v 65.079361 56.148849 -114.150764
v 63.184120 56.176811 -100.480019
v 73.324081 52.422737 -97.075233
v 74.153084 52.483459 -111.118515
v 59.769012 55.507484 -87.569580
v 71.245728 50.808784 -84.282623
v 79.730057 41.736797 -81.584297
v 80.430481 43.519741 -94.562729
v 80.513824 43.461353 -108.839211
v 61.899246 51.051098 -130.443817
v 62.766041 54.695702 -125.287659
v 72.407623 48.712105 -123.010811
v 68.940094 44.540432 -131.291626
v 80.104599 38.461948 -120.385437
v 78.435081 32.971844 -128.332336
v 77.324707 30.995235 -65.018578
v 80.198776 31.065010 -66.413506
v 76.793869 24.253172 -65.437447
v 79.477531 21.749081 -66.533501
v 80.194702 20.006531 -68.954773
v 81.003944 30.262249 -68.849358
v 82.226875 15.046770 -79.837799
v 82.751114 13.565279 -92.088081
v 83.658836 28.045940 -92.812469
v 83.325546 27.841026 -79.947449
v 82.983383 12.798620 -104.733292
v 83.626091 27.598866 -106.567909
v 81.877213 14.251730 -117.889458
v 82.356720 21.310987 -122.782486
v 83.610100 24.600243 -116.526291
v 83.091423 12.506748 -112.997513
v 67.062637 38.944313 -64.235451
v 69.878548 29.756197 -64.330574
v 57.977097 37.688686 -64.026100
v 60.166290 27.936735 -63.996513
v 61.958271 19.291716 -64.941788
v 71.763916 21.198425 -65.130928
v 55.320786 46.161789 -64.428680
v 62.992485 45.362549 -64.431046
v 44.968040 55.401871 -74.143379
v 44.559361 55.028984 -69.129799
v 37.217724 52.316803 -75.024193
v 37.525932 52.001270 -69.412048
v 39.934418 50.154526 -66.722694
v 44.886597 52.505074 -65.902084
v 53.828110 55.941200 -118.681335
v 50.855068 56.203804 -104.906967
v 44.130489 52.121773 -122.732468
v 40.653374 52.500023 -108.653534
v 37.533783 52.933159 -93.543678
v 47.196301 56.283440 -90.972206
v 53.426731 55.757698 -128.101212
v 55.176483 52.596344 -133.322342
v 49.629635 50.237968 -133.896591
v 45.932362 52.469826 -130.482376
v 78.611885 19.992016 -125.431152
v 74.737503 31.441341 -131.811111
v 79.010033 11.287029 -117.801453
v 71.304665 10.420958 -118.270271
v 71.225853 19.435043 -126.301636
v 67.849297 30.918224 -132.752289
v 46.198086 25.207411 -131.844391
v 56.607876 28.450275 -133.086609
v 59.048927 18.431795 -127.223358
v 47.756264 16.900911 -126.404686
v 59.275059 10.220886 -119.638611
v 50.841843 11.548590 -120.636230
v 58.792912 42.119987 -134.968613
v 64.602890 43.400166 -134.500229
v 42.586823 37.797894 -133.388107
v 44.971355 43.801453 -134.127762
v 50.907063 37.528549 -135.028702
v 43.869469 32.401608 -133.882126
v 41.825581 45.403793 -131.461990
v 40.313755 36.954018 -131.418564
v 38.699242 36.236313 -124.226158
v 39.717655 44.951828 -124.326630
v 36.824814 35.670879 -109.821152
v 36.895477 45.061779 -110.017136
v 35.678165 35.235264 -94.023956
v 34.787621 45.253147 -94.337280
v 35.806316 44.684879 -75.084785
v 36.544319 44.417683 -69.125069
v 37.511021 34.661137 -74.544975
v 38.449883 34.472698 -68.525726
v 41.390450 34.796478 -64.855949
v 39.346313 44.586952 -65.458618
v 39.109070 24.400627 -73.624641
v 40.077953 24.360777 -67.870880
v 40.498985 15.925316 -72.809044
v 41.302925 16.213116 -67.611763
v 44.306778 16.462090 -65.145447
v 43.063690 24.781042 -64.549133
v 41.579327 11.257174 -72.583557
v 41.999165 12.160902 -68.199532
v 45.156429 9.594555 -72.172462
v 45.060455 11.761063 -67.252174
v 37.684807 26.109137 -108.889053
v 36.925747 24.871347 -93.274696
v 39.184883 27.780169 -123.193108
v 40.417286 19.837799 -120.234703
v 39.024986 17.573261 -106.892517
v 38.369049 16.030125 -92.378319
v 46.075249 7.538097 -108.381981
v 44.954758 7.350798 -99.744614
v 40.394867 11.259964 -103.503181
v 41.639210 12.663589 -114.358070
v 44.397869 7.789656 -90.318726
v 39.846779 10.580332 -91.623894
v 43.023014 14.761038 -122.054047
v 41.804771 22.359549 -128.056229
v 47.463573 8.802071 -115.840508
v 40.604256 29.514904 -130.730515
v 69.279381 5.981411 -103.836510
v 56.950027 5.741869 -105.125252
v 58.331074 6.565321 -112.532005
v 70.467766 6.626476 -111.311798
v 67.312904 7.563911 -84.672798
v 55.061264 6.925770 -87.770226
v 55.864948 6.027300 -96.640175
v 68.303703 6.415565 -94.254745
v 78.715935 7.561220 -111.363129
v 78.079163 6.963232 -103.764359
v 77.449242 7.641689 -92.653114
v 76.628723 9.279320 -81.720764
v 64.737511 11.166946 -71.552269
v 53.978680 9.608614 -72.020378
v 54.524361 7.941431 -79.208885
v 66.079170 9.061407 -77.196938
v 44.700329 8.404167 -80.494659
v 53.148674 12.461630 -67.268883
v 63.422943 14.139416 -67.463791
v 51.998898 17.600613 -64.601044
v 73.042412 16.671225 -67.051155
v 74.124367 14.137175 -70.193077
v 50.493904 26.125690 -63.663536
v 48.659611 36.087276 -63.794479
v 46.521931 45.535793 -64.332176
v 75.420120 11.558844 -74.658531
v 81.242950 17.483143 -72.758080
v 82.243393 28.883694 -72.660225
v 78.287949 41.212212 -73.932426
v 57.522736 54.868820 -78.713692
v 69.243149 49.920391 -76.142212
v 36.804451 52.749748 -82.701004
v 45.540493 55.918079 -81.070915
v 36.247017 34.907009 -82.654800
v 34.822662 45.045441 -83.090996
v 39.190712 15.672563 -81.040909
v 37.729416 24.436331 -81.806198
v 40.551727 10.654858 -80.854500

# UV coordinates
vt 0.500040 0.621305
vt 0.558357 0.611499
vt 0.562104 0.627762
vt 0.502451 0.635042
vt 0.612258 0.602934
vt 0.617101 0.622280
vt 0.623786 0.637033
vt 0.565080 0.640571
vt 0.506374 0.644110
vt 0.578371 0.412242
vt 0.586807 0.476107
vt 0.544961 0.491467
vt 0.537542 0.423748
vt 0.597175 0.535534
vt 0.548012 0.550801
vt 0.494762 0.564555
vt 0.497929 0.502697
vt 0.491608 0.431125
vt 0.590893 0.311404
vt 0.575706 0.358548
vt 0.519381 0.361066
vt 0.495848 0.300903
vt 0.461439 0.365589
vt 0.400803 0.290403
vt 0.439305 0.653084
vt 0.437721 0.644278
vt 0.372235 0.662057
vt 0.370745 0.653206
vt 0.369794 0.639583
vt 0.435455 0.631926
vt 0.365136 0.578922
vt 0.364571 0.511321
vt 0.431465 0.509534
vt 0.429574 0.575247
vt 0.363822 0.441148
vt 0.427497 0.437193
vt 0.356128 0.364024
vt 0.376907 0.338740
vt 0.407674 0.380076
vt 0.361004 0.394105
vt 0.830059 0.799852
vt 0.830566 0.751974
vt 0.873568 0.751334
vt 0.879182 0.795290
vt 0.823477 0.711540
vt 0.868077 0.707457
vt 0.914908 0.701511
vt 0.921606 0.746119
vt 0.928305 0.790727
vt 0.741847 0.717295
vt 0.783570 0.711903
vt 0.797635 0.743464
vt 0.785953 0.758574
vt 0.663595 0.596037
vt 0.667865 0.618436
vt 0.712328 0.589904
vt 0.715859 0.614830
vt 0.719364 0.636004
vt 0.671575 0.636518
vt 0.627165 0.393787
vt 0.637711 0.456879
vt 0.676643 0.375402
vt 0.689107 0.439063
vt 0.701293 0.507114
vt 0.650108 0.520300
vt 0.624619 0.350072
vt 0.626073 0.316045
vt 0.661253 0.320686
vt 0.668849 0.339987
vt 0.340105 0.313741
vt 0.349616 0.265026
vt 0.331409 0.358976
vt 0.285040 0.349427
vt 0.287344 0.299630
vt 0.298428 0.239649
vt 0.108775 0.243922
vt 0.203601 0.241785
vt 0.208700 0.290957
vt 0.117114 0.285003
vt 0.210121 0.338627
vt 0.125453 0.326085
vt 0.728455 0.171154
vt 0.703423 0.248005
vt 0.690450 0.224068
vt 0.726470 0.150376
vt 0.654429 0.297759
vt 0.647606 0.274832
vt 0.686046 0.202216
vt 0.724485 0.129599
vt 0.743044 0.314790
vt 0.713658 0.310873
vt 0.733534 0.276112
vt 0.765363 0.303100
vt 0.762081 0.234854
vt 0.795707 0.298554
vt 0.711125 0.332641
vt 0.749866 0.327412
vt 0.758721 0.358220
vt 0.719519 0.364102
vt 0.772874 0.421705
vt 0.732426 0.427942
vt 0.787347 0.491725
vt 0.745215 0.497991
vt 0.758414 0.583631
vt 0.762549 0.610065
vt 0.803750 0.578114
vt 0.808553 0.604843
vt 0.812782 0.632088
vt 0.767173 0.636887
vt 0.850235 0.574246
vt 0.854491 0.599868
vt 0.888602 0.571357
vt 0.890995 0.594721
vt 0.902439 0.612316
vt 0.858186 0.625949
vt 0.909587 0.568772
vt 0.908698 0.588979
vt 0.925303 0.576903
vt 0.913871 0.594609
vt 0.815656 0.418546
vt 0.833160 0.487112
vt 0.797174 0.356086
vt 0.834723 0.362827
vt 0.855192 0.420878
vt 0.873211 0.484311
vt 0.909876 0.410301
vt 0.912200 0.445313
vt 0.885903 0.431118
vt 0.871216 0.383570
vt 0.914525 0.480325
vt 0.898053 0.483484
vt 0.839687 0.323467
vt 0.855667 0.350019
vt 0.817072 0.328774
vt 0.883666 0.348381
vt 0.896771 0.379341
vt 0.783493 0.323681
vt 0.270720 0.438889
vt 0.195509 0.429842
vt 0.204188 0.383291
vt 0.278476 0.392614
vt 0.105929 0.417168
vt 0.115691 0.371626
vt 0.259376 0.557055
vt 0.183638 0.538916
vt 0.188689 0.483170
vt 0.264842 0.497955
vt 0.094399 0.514261
vt 0.100164 0.465715
vt 0.324342 0.397251
vt 0.319193 0.442186
vt 0.316249 0.507400
vt 0.314139 0.571624
vt 0.245652 0.638623
vt 0.176834 0.637903
vt 0.180264 0.592723
vt 0.252860 0.603435
vt 0.106973 0.649205
vt 0.100686 0.581733
vt 0.171618 0.667765
vt 0.104988 0.670900
vt 0.238116 0.664148
vt 0.228014 0.687346
vt 0.165508 0.689970
vt 0.103002 0.692594
vt 0.300124 0.674701
vt 0.304351 0.659562
vt 0.308249 0.640499
vt 0.862832 0.663737
vt 0.908674 0.656914
vt 0.817653 0.669616
vt 0.730605 0.676649
vt 0.773798 0.673605
vt 0.311493 0.613588
vt 0.367400 0.618248
vt 0.431821 0.612480
vt 0.496472 0.600950
vt 0.605637 0.575914
vt 0.553068 0.588329
vt 0.708253 0.555696
vt 0.658206 0.565005
vt 0.797160 0.542134
vt 0.753257 0.548080
vt 0.883511 0.534512
vt 0.843905 0.537836
vt 0.919914 0.528614
vt 0.905993 0.531488

# vertex normals
vn 0.767517 0.586712 0.258239
vn 0.484178 0.847478 0.217607
vn 0.442469 0.803209 0.398845
vn 0.660036 0.536877 0.525467
vn 0.219012 0.965569 0.140395
vn 0.193899 0.921511 0.336481
vn 0.079664 0.505741 0.858999
vn 0.229252 0.465304 0.854948
vn 0.262713 0.219851 0.939493
vn 0.242385 0.966190 -0.087894
vn 0.169143 0.984321 0.050023
vn 0.573242 0.813433 0.098588
vn 0.644998 0.756091 -0.110924
vn 0.177344 0.979166 0.098912
vn 0.531373 0.828872 0.174970
vn 0.879966 0.455997 0.133139
vn 0.907046 0.416569 0.061133
vn 0.917371 0.390047 -0.079335
vn 0.444230 0.657789 -0.608255
vn 0.344325 0.885586 -0.311733
vn 0.683557 0.618427 -0.387682
vn 0.617006 0.467180 -0.633283
vn 0.892564 0.348523 -0.286115
vn 0.802954 0.223802 -0.552428
vn 0.239538 0.037449 0.970165
vn 0.766790 0.180246 0.616072
vn 0.199719 -0.125866 0.971735
vn 0.605809 -0.301300 0.736352
vn 0.786084 -0.375372 0.491089
vn 0.940159 0.176958 0.291183
vn 0.934054 -0.328296 0.140589
vn 0.956951 -0.285385 0.052921
vn 0.995760 0.088445 0.025286
vn 0.991949 0.091835 0.087196
vn 0.968299 -0.248636 0.024014
vn 0.994866 0.099015 -0.020928
vn 0.841351 -0.369127 -0.394808
vn 0.890699 -0.070405 -0.449109
vn 0.986874 0.092164 -0.132608
vn 0.961246 -0.266051 -0.072270
vn 0.061691 0.045006 0.997080
vn 0.063191 -0.029637 0.997561
vn 0.020539 0.027321 0.999416
vn 0.037532 -0.041252 0.998444
vn 0.065055 -0.226345 0.971872
vn 0.088684 -0.202859 0.975184
vn 0.013717 0.129013 0.991548
vn 0.049966 0.129089 0.990373
vn -0.127246 0.988704 0.079200
vn -0.137014 0.942505 0.304813
vn -0.763335 0.640098 0.087146
vn -0.763632 0.575511 0.292666
vn -0.434913 0.333659 0.836374
vn -0.107935 0.476954 0.872276
vn -0.137984 0.988518 -0.061577
vn -0.144791 0.988659 -0.039868
vn -0.597507 0.791013 -0.131465
vn -0.604157 0.784521 -0.139717
vn -0.652856 0.752227 -0.089070
vn -0.135367 0.990777 -0.005986
vn -0.092753 0.968906 -0.229388
vn 0.120629 0.556672 -0.821928
vn -0.152256 0.341250 -0.927559
vn -0.552631 0.764219 -0.332518
vn 0.353222 -0.469262 -0.809338
vn 0.388777 -0.131546 -0.911893
vn 0.284451 -0.732483 -0.618511
vn 0.100496 -0.765255 -0.635834
vn 0.122390 -0.563274 -0.817155
vn 0.117547 -0.310673 -0.943221
vn -0.101842 -0.436287 -0.894026
vn 0.064434 -0.351050 -0.934137
vn 0.076814 -0.578934 -0.811748
vn -0.088829 -0.626303 -0.774502
vn 0.046452 -0.776205 -0.628767
vn -0.064467 -0.779623 -0.622922
vn 0.049246 -0.013938 -0.998689
vn 0.289925 0.187123 -0.938578
vn -0.404984 0.018017 -0.914146
vn -0.254028 0.143738 -0.956457
vn -0.016569 -0.088332 -0.995953
vn -0.208291 -0.204168 -0.956520
vn -0.830226 0.354238 -0.430395
vn -0.915183 0.035828 -0.401443
vn -0.985311 0.002723 -0.170746
vn -0.934274 0.298477 -0.195049
vn -0.992530 -0.049479 -0.111518
vn -0.962088 0.222861 -0.157225
vn -0.994830 -0.096477 -0.031714
vn -0.988576 0.128614 -0.078581
vn -0.992922 -0.009872 0.118360
vn -0.942694 -0.031242 0.332192
vn -0.978758 -0.146073 0.143859
vn -0.918854 -0.138726 0.369408
vn -0.404368 -0.034595 0.913942
vn -0.454094 0.042132 0.889957
vn -0.977255 -0.140757 0.158618
vn -0.905419 -0.130964 0.403812
vn -0.972212 -0.173619 0.157036
vn -0.873239 -0.182864 0.451680
vn -0.229415 -0.231638 0.945364
vn -0.346382 -0.072622 0.935278
vn -0.780108 -0.598171 0.183364
vn -0.719171 -0.530566 0.448656
vn -0.133133 -0.954629 0.266382
vn -0.084291 -0.703538 0.705642
vn -0.986041 -0.137732 -0.093561
vn -0.990196 -0.139292 -0.010440
vn -0.976654 -0.141767 -0.161395
vn -0.950097 -0.254231 -0.180784
vn -0.971555 -0.214943 -0.099399
vn -0.979921 -0.199278 -0.006530
vn -0.338505 -0.932247 -0.127792
vn -0.321332 -0.946825 -0.016394
vn -0.843900 -0.526352 -0.103857
vn -0.817854 -0.536965 -0.206844
vn -0.273312 -0.960585 0.050759
vn -0.832097 -0.554617 -0.003933
vn -0.588924 -0.640307 -0.493129
vn -0.701725 -0.443662 -0.557446
vn -0.272495 -0.895566 -0.351722
vn -0.840545 -0.221686 -0.494307
vn 0.060914 -0.998127 -0.005668
vn -0.054921 -0.997440 -0.045799
vn -0.023121 -0.957580 -0.287239
vn 0.070992 -0.958452 -0.276277
vn 0.073123 -0.984196 0.161279
vn -0.033467 -0.993917 0.104927
vn -0.050019 -0.997259 0.054513
vn 0.063570 -0.993929 0.089803
vn 0.400161 -0.892198 -0.209411
vn 0.453258 -0.890841 0.030962
vn 0.445880 -0.888338 0.109759
vn 0.419534 -0.882575 0.212255
vn 0.126126 -0.878400 0.460984
vn 0.047003 -0.933345 0.355890
vn -0.000805 -0.984955 0.172810
vn 0.097053 -0.957137 0.272890
vn -0.211739 -0.970620 0.114296
vn 0.075073 -0.668630 0.739796
vn 0.115131 -0.619929 0.776165
vn 0.023809 -0.237169 0.971177
vn 0.207282 -0.561137 0.801349
vn 0.301792 -0.769439 0.562926
vn -0.024004 -0.043708 0.998756
vn -0.052418 0.023691 0.998344
vn -0.074660 0.110523 0.991065
vn 0.355990 -0.849742 0.388858
vn 0.871667 -0.364716 0.327383
vn 0.970694 0.125427 0.204991
vn 0.824152 0.525840 0.210395
vn 0.203260 0.971091 0.125173
vn 0.503163 0.840194 0.202239
vn -0.716896 0.696896 0.019916
vn -0.128711 0.990511 0.048182
vn -0.988268 -0.128076 0.083210
vn -0.997842 0.043918 0.048816
vn -0.976466 -0.188870 0.104128
vn -0.984923 -0.140021 0.101593
vn -0.804616 -0.585355 0.099768

# Mesh
g Stone_Corner_L
usemtl Stone_Corner_L_1_initialShadingGroup
f 4/4/4 1/1/1 2/2/2 3/3/3
f 3/3/3 2/2/2 5/5/5 6/6/6
f 8/8/8 3/3/3 6/6/6 7/7/7
f 9/9/9 4/4/4 3/3/3 8/8/8
f 12/12/12 13/13/13 10/10/10 11/11/11
f 15/15/15 12/12/12 11/11/11 14/14/14
f 16/16/16 17/17/17 12/12/12 15/15/15
f 17/17/17 18/18/18 13/13/13 12/12/12
f 21/21/21 22/22/22 19/19/19 20/20/20
f 13/13/13 21/21/21 20/20/20 10/10/10
f 18/18/18 23/23/23 21/21/21 13/13/13
f 23/23/23 24/24/24 22/22/22 21/21/21
f 25/25/25 26/26/26 4/4/4 9/9/9
f 28/28/28 26/26/26 25/25/25 27/27/27
f 30/30/30 26/26/26 28/28/28 29/29/29
f 26/26/26 30/30/30 1/1/1 4/4/4
f 33/33/33 34/34/34 31/31/31 32/32/32
f 36/36/36 33/33/33 32/32/32 35/35/35
f 33/33/33 36/36/36 18/18/18 17/17/17
f 34/34/34 33/33/33 17/17/17 16/16/16
f 39/39/39 40/40/40 37/37/37 38/38/38
f 39/39/39 38/38/38 24/24/24 23/23/23
f 36/36/36 39/39/39 23/23/23 18/18/18
f 39/39/39 36/36/36 35/35/35 40/40/40
f 25/44/25 9/41/9 41/42/41 42/43/42
f 42/43/42 41/42/41 43/45/43 44/46/44
f 46/48/46 42/43/42 44/46/44 45/47/45
f 27/49/27 25/44/25 42/43/42 46/48/46
f 48/52/48 8/53/8 7/50/7 47/51/47
f 41/42/41 48/52/48 47/51/47 43/45/43
f 41/42/41 9/41/9 8/53/8 48/52/48
f 6/6/6 5/5/5 49/54/49 50/55/50
f 50/55/50 49/54/49 51/56/51 52/57/52
f 54/59/54 50/55/50 52/57/52 53/58/53
f 7/7/7 6/6/6 50/55/50 54/59/54
f 11/11/11 10/10/10 55/60/55 56/61/56
f 56/61/56 55/60/55 57/62/57 58/63/58
f 60/65/60 56/61/56 58/63/58 59/64/59
f 14/14/14 11/11/11 56/61/56 60/65/60
f 10/10/10 20/20/20 61/66/61 55/60/55
f 20/20/20 19/19/19 62/67/62 61/66/61
f 61/66/61 62/67/62 63/68/63 64/69/64
f 55/60/55 61/66/61 64/69/64 57/62/57
f 38/38/38 65/70/65 66/71/66 24/24/24
f 38/38/38 37/37/37 67/72/67 65/70/65
f 65/70/65 67/72/67 68/73/68 69/74/69
f 66/71/66 65/70/65 69/74/69 70/75/70
f 72/77/72 73/78/73 74/79/74 71/76/71
f 70/75/70 69/74/69 73/78/73 72/77/72
f 69/74/69 68/73/68 75/80/75 73/78/73
f 73/78/73 75/80/75 76/81/76 74/79/74
f 66/85/66 70/82/70 77/83/77 78/84/78
f 78/84/78 77/83/77 63/68/63 62/86/62
f 22/88/22 78/84/78 62/86/62 19/87/19
f 24/89/24 66/85/66 78/84/78 22/88/22
f 80/91/80 81/92/81 82/93/82 79/90/79
f 77/83/77 81/92/81 80/91/80 63/68/63
f 77/83/77 70/82/70 72/94/72 81/92/81
f 81/92/81 72/94/72 71/95/71 82/93/82
f 64/69/64 63/68/63 80/91/80 83/96/83
f 80/91/80 79/90/79 84/97/84 83/96/83
f 83/96/83 84/97/84 85/98/85 86/99/86
f 57/62/57 64/69/64 83/96/83 86/99/86
f 86/99/86 85/98/85 87/100/87 88/101/88
f 88/101/88 87/100/87 89/102/89 90/103/90
f 59/64/59 58/63/58 88/101/88 90/103/90
f 58/63/58 57/62/57 86/99/86 88/101/88
f 52/57/52 51/56/51 91/104/91 92/105/92
f 93/106/93 94/107/94 92/105/92 91/104/91
f 95/108/95 96/109/96 92/105/92 94/107/94
f 96/109/96 53/58/53 52/57/52 92/105/92
f 97/110/97 98/111/98 94/107/94 93/106/93
f 99/112/99 100/113/100 98/111/98 97/110/97
f 101/114/101 102/115/102 98/111/98 100/113/100
f 102/115/102 95/108/95 94/107/94 98/111/98
f 103/116/103 104/117/104 100/113/100 99/112/99
f 105/118/105 106/119/106 104/117/104 103/116/103
f 106/119/106 101/114/101 100/113/100 104/117/104
f 107/120/107 108/121/108 89/102/89 87/100/87
f 85/98/85 109/122/109 107/120/107 87/100/87
f 109/122/109 110/123/110 111/124/111 107/120/107
f 111/124/111 112/125/112 108/121/108 107/120/107
f 113/126/113 114/127/114 115/128/115 116/129/116
f 114/127/114 117/130/117 118/131/118 115/128/115
f 115/128/115 118/131/118 112/125/112 111/124/111
f 110/123/110 116/129/116 115/128/115 111/124/111
f 71/95/71 74/132/74 119/133/119 120/134/120
f 74/132/74 76/135/76 121/136/121 119/133/119
f 121/136/121 113/126/113 116/129/116 119/133/119
f 120/134/120 119/133/119 116/129/116 110/123/110
f 79/90/79 82/93/82 122/137/122 84/97/84
f 82/93/82 71/95/71 120/134/120 122/137/122
f 122/137/122 120/134/120 110/123/110 109/122/109
f 84/97/84 122/137/122 109/122/109 85/98/85
f 126/141/126 123/138/123 124/139/124 125/140/125
f 125/140/125 124/139/124 113/142/113 121/143/121
f 75/80/75 125/140/125 121/143/121 76/81/76
f 68/73/68 126/141/126 125/140/125 75/80/75
f 130/147/130 127/144/127 128/145/128 129/146/129
f 129/146/129 128/145/128 117/148/117 114/149/114
f 124/139/124 129/146/129 114/149/114 113/142/113
f 123/138/123 130/147/130 129/146/129 124/139/124
f 131/150/131 132/151/132 123/138/123 126/141/126
f 67/72/67 131/150/131 126/141/126 68/73/68
f 37/37/37 40/40/40 131/150/131 67/72/67
f 40/40/40 35/35/35 132/151/132 131/150/131
f 133/152/133 134/153/134 127/144/127 130/147/130
f 132/151/132 133/152/133 130/147/130 123/138/123
f 35/35/35 32/32/32 133/152/133 132/151/132
f 32/32/32 31/31/31 134/153/134 133/152/133
f 138/157/138 135/154/135 136/155/136 137/156/137
f 137/156/137 136/155/136 105/158/105 139/159/139
f 128/145/128 137/156/137 139/159/139 117/148/117
f 127/144/127 138/157/138 137/156/137 128/145/128
f 136/155/136 140/160/140 106/161/106 105/158/105
f 135/154/135 141/162/141 140/160/140 136/155/136
f 141/162/141 45/163/45 142/164/142 140/160/140
f 140/160/140 142/164/142 101/165/101 106/161/106
f 28/28/28 27/27/27 46/166/46 143/167/143
f 143/167/143 46/166/46 45/163/45 141/162/141
f 144/168/144 143/167/143 141/162/141 135/154/135
f 29/29/29 28/28/28 143/167/143 144/168/144
f 45/47/45 44/46/44 145/169/145 142/170/142
f 44/46/44 43/45/43 146/171/146 145/169/145
f 145/169/145 146/171/146 95/108/95 102/115/102
f 142/170/142 145/169/145 102/115/102 101/114/101
f 47/51/47 7/50/7 54/172/54 147/173/147
f 147/173/147 54/172/54 53/58/53 96/109/96
f 146/171/146 147/173/147 96/109/96 95/108/95
f 43/45/43 47/51/47 147/173/147 146/171/146
f 134/153/134 148/174/148 138/157/138 127/144/127
f 31/31/31 149/175/149 148/174/148 134/153/134
f 149/175/149 29/29/29 144/168/144 148/174/148
f 148/174/148 144/168/144 135/154/135 138/157/138
f 30/30/30 150/176/150 151/177/151 1/1/1
f 149/175/149 150/176/150 30/30/30 29/29/29
f 34/34/34 150/176/150 149/175/149 31/31/31
f 150/176/150 34/34/34 16/16/16 151/177/151
f 153/179/153 15/15/15 14/14/14 152/178/152
f 2/2/2 153/179/153 152/178/152 5/5/5
f 1/1/1 151/177/151 153/179/153 2/2/2
f 151/177/151 16/16/16 15/15/15 153/179/153
f 155/181/155 60/65/60 59/64/59 154/180/154
f 49/54/49 155/181/155 154/180/154 51/56/51
f 5/5/5 152/178/152 155/181/155 49/54/49
f 152/178/152 14/14/14 60/65/60 155/181/155
f 89/102/89 156/182/156 157/183/157 90/103/90
f 156/182/156 93/106/93 91/104/91 157/183/157
f 51/56/51 154/180/154 157/183/157 91/104/91
f 154/180/154 59/64/59 90/103/90 157/183/157
f 112/125/112 158/184/158 159/185/159 108/121/108
f 158/184/158 99/112/99 97/110/97 159/185/159
f 159/185/159 97/110/97 93/106/93 156/182/156
f 108/121/108 159/185/159 156/182/156 89/102/89
f 117/130/117 139/186/139 160/187/160 118/131/118
f 139/186/139 105/118/105 103/116/103 160/187/160
f 160/187/160 103/116/103 99/112/99 158/184/158
f 118/131/118 160/187/160 158/184/158 112/125/112
